<svg width="59" height="57" viewBox="0 0 59 57" fill="none" xmlns="http://www.w3.org/2000/svg">
<g opacity="0.3">
<path d="M46.9415 39.5134L43.0691 37.2777C44.1399 34.9782 44.6304 32.5375 44.6038 30.124L52.3968 27.404C53.1603 27.1352 53.562 26.2982 53.2931 25.5348C53.0232 24.7674 52.1882 24.3701 51.4239 24.6385L44.3059 27.145C43.7633 24.334 42.5002 21.6785 40.5999 19.4625C41.4857 18.4594 43.3091 17.1061 46.0041 18.6621C46.7049 19.0667 47.6018 18.8264 48.0064 18.1256C48.411 17.4248 48.1707 16.5279 47.4699 16.1233C43.446 13.8002 40.259 15.5148 38.4983 17.4171C37.8191 16.8638 37.1026 16.3437 36.3201 15.8919C35.5376 15.4401 34.7289 15.0797 33.9102 14.7681C34.6772 12.2922 34.5686 8.67478 30.5448 6.35161C29.844 5.947 28.9471 6.18731 28.5425 6.88812C28.1379 7.58892 28.3782 8.48577 29.079 8.89038C31.7577 10.4369 31.5297 12.6732 31.0935 13.9718C28.2224 13.4326 25.2893 13.6663 22.5818 14.6025L21.1934 7.18492C21.0439 6.39228 20.279 5.86583 19.4826 6.01426C18.687 6.16317 18.163 6.92949 18.3119 7.72508L19.8319 15.8456C17.737 17.0285 15.8761 18.6698 14.4249 20.74L10.5525 18.5042C9.85174 18.0996 8.95489 18.3399 8.55028 19.0407C8.14567 19.7415 8.38598 20.6384 9.08679 21.043L12.9592 23.2787C11.8919 25.5706 11.4013 28.0025 11.4243 30.4083L3.63146 33.1524C2.868 33.4212 2.46634 34.2582 2.73517 35.0216C2.85651 35.365 3.09168 35.6352 3.38423 35.8041C3.74207 36.0107 4.18427 36.0654 4.60441 35.9179L11.7226 33.4113C12.6045 37.9801 15.3716 42.1608 19.7082 44.6645C24.0448 47.1683 29.0489 47.4743 33.4466 45.9536L34.8349 53.3715C34.9172 53.8091 35.1857 54.1647 35.5436 54.3713C35.8353 54.5397 36.1877 54.6087 36.5457 54.5422C37.3413 54.3932 37.8653 53.6269 37.7164 52.8313L36.1964 44.7105C38.2914 43.5275 40.1522 41.8867 41.6033 39.8164L45.4757 42.0522C46.1766 42.4568 47.0734 42.2165 47.478 41.5157C47.8826 40.8149 47.6423 39.918 46.9415 39.5134ZM34.8543 18.4306C38.4057 20.481 40.6773 23.8969 41.4171 27.6346C39.2393 27.6056 35.3289 27.1672 31.19 24.7775C27.0503 22.3875 24.7157 19.2195 23.6023 17.3491C27.2091 16.1209 31.3031 16.3803 34.8543 18.4306ZM16.1666 23.438C17.3576 21.3752 19.0096 19.7426 20.9168 18.589C22.0483 20.5628 24.3785 23.8451 28.4769 26.5451L19.9452 41.3224C14.3744 37.2585 12.643 29.541 16.1666 23.438ZM22.484 42.7882L31.0157 28.0109C35.4032 30.2102 39.4108 30.5871 41.686 30.5801C41.6405 32.8085 41.0527 35.0556 39.8617 37.1184C36.3381 43.2214 28.7889 45.5807 22.484 42.7882Z" fill="#4C4C4C"/>
</g>
</svg>
